<svg version="1.1" id="Layer_1" xmlns="http://www.w3.org/2000/svg" xmlns:xlink="http://www.w3.org/1999/xlink" x="0px" y="0px"
	 width="100%" viewBox="0 0 252 237" enable-background="new 0 0 252 237" xml:space="preserve">
<path fill="#4D4AB1" opacity="1.000000" stroke="none" 
	d="
M13.000000,1.000000 
	C36.020893,1.000000 59.041790,1.000000 82.533127,1.435873 
	C86.823418,20.210838 90.413681,38.602379 94.585045,56.861160 
	C96.086678,63.434048 98.985718,69.687683 101.117851,76.412712 
	C91.188591,89.772133 89.958466,105.804504 86.433250,121.033813 
	C86.018700,120.987526 85.604149,120.941231 85.189598,120.894936 
	C83.976242,117.671967 82.762886,114.448990 81.561455,111.257721 
	C73.432289,119.998459 70.944527,162.378204 78.537247,169.996048 
	C80.758743,164.463806 82.921600,159.116867 85.054817,153.758118 
	C92.834496,134.215179 101.698181,115.230461 114.046783,98.088760 
	C115.616379,99.545876 116.906593,100.806900 118.114471,102.415863 
	C111.401474,115.374451 103.961143,127.636276 98.340569,140.682114 
	C90.947273,157.842606 84.985466,175.619843 78.135941,192.900421 
	C76.757698,191.215363 75.425316,189.881363 74.583366,188.288177 
	C70.086090,179.777985 65.192978,171.426010 61.398731,162.605515 
	C52.666759,142.306274 43.327023,122.153008 36.402088,101.223145 
	C28.900051,78.549072 23.543482,55.137455 17.891489,31.891823 
	C15.436528,21.795010 14.581635,11.309155 13.000000,1.000000 
z"/>
<path fill="#5451B4" opacity="1.000000" stroke="none" 
	d="
M253.000000,117.000000 
	C253.000000,144.020889 253.000000,171.041794 252.644775,198.490189 
	C251.093658,198.113174 249.657471,197.517868 248.743469,196.467957 
	C244.755722,191.887222 240.832886,187.243576 237.047882,182.494156 
	C230.538818,174.326569 223.577377,166.440765 217.846405,157.750443 
	C209.479202,145.062546 201.499649,132.052139 194.344772,118.650711 
	C187.401855,105.646248 181.750381,91.954826 175.431885,78.612381 
	C174.113770,75.828957 172.358383,73.252602 170.877609,70.237228 
	C176.169662,58.083164 175.484589,45.239830 178.718246,32.767963 
	C171.707962,35.453033 165.853027,37.695591 159.912201,39.568802 
	C156.884186,26.466307 153.942093,13.733153 151.000000,1.000000 
	C168.687561,1.000000 186.375122,1.000000 204.574463,1.409219 
	C205.926559,7.231600 206.154556,12.831403 207.735703,18.018753 
	C210.948364,28.558691 214.680145,38.956303 218.594208,49.262085 
	C222.533844,59.635155 226.554428,70.013794 231.274353,80.044205 
	C236.202209,90.516464 241.897369,100.636711 247.508514,110.771660 
	C248.817719,113.136375 251.142487,114.938843 253.000000,117.000000 
z"/>
<path fill="#4A48B0" opacity="1.000000" stroke="none" 
	d="
M12.520824,1.000000 
	C14.581635,11.309155 15.436528,21.795010 17.891489,31.891823 
	C23.543482,55.137455 28.900051,78.549072 36.402088,101.223145 
	C43.327023,122.153008 52.666759,142.306274 61.398731,162.605515 
	C65.192978,171.426010 70.086090,179.777985 74.583366,188.288177 
	C75.425316,189.881363 76.757698,191.215363 78.037079,193.270554 
	C77.135910,196.801102 76.061417,199.730087 74.986916,202.659058 
	C75.421310,202.888947 75.855698,203.118851 76.290085,203.348740 
	C79.497414,198.164642 82.704750,192.980545 86.093369,188.100052 
	C89.847351,194.862839 93.420036,201.322021 96.633270,207.919022 
	C92.652229,209.224258 89.091972,210.991440 85.389740,211.369949 
	C82.410484,211.674515 79.269104,210.246216 76.181328,209.688171 
	C74.133667,209.318085 71.202499,208.149673 70.162430,209.055618 
	C67.881889,211.042084 68.335266,214.235855 70.988228,215.844223 
	C74.004181,217.672638 77.386627,219.393082 80.801407,219.921143 
	C83.934944,220.405701 87.323441,219.241486 90.867233,219.046707 
	C95.089905,225.526474 99.044952,231.763229 103.000000,238.000000 
	C86.312439,238.000000 69.624878,238.000000 52.385490,237.654587 
	C45.027142,225.202576 38.085011,213.169601 31.458242,200.965393 
	C26.418037,191.683090 21.465300,182.327438 17.049393,172.739273 
	C12.682713,163.257950 9.131223,153.403900 4.995531,143.811066 
	C4.203762,141.974533 2.358976,140.591995 1.000000,139.000000 
	C1.000000,92.999985 1.000000,46.999973 1.000000,1.000000 
	C4.730805,1.000000 8.386227,1.000000 12.520824,1.000000 
z"/>
<path fill="#514FB3" opacity="1.000000" stroke="none" 
	d="
M170.804504,70.580818 
	C172.358383,73.252602 174.113770,75.828957 175.431885,78.612381 
	C181.750381,91.954826 187.401855,105.646248 194.344772,118.650711 
	C201.499649,132.052139 209.479202,145.062546 217.846405,157.750443 
	C223.577377,166.440765 230.538818,174.326569 237.047882,182.494156 
	C240.832886,187.243576 244.755722,191.887222 248.743469,196.467957 
	C249.657471,197.517868 251.093658,198.113174 252.644775,198.958847 
	C253.000000,211.898895 253.000000,224.797791 253.000000,238.000000 
	C247.316742,238.000000 241.628082,238.000000 235.375610,237.671814 
	C233.477966,235.665787 232.203873,233.936172 230.800827,232.318420 
	C220.158188,220.047119 209.490280,207.797699 199.042145,195.285431 
	C203.155502,193.370743 207.164017,191.916794 210.908585,189.958221 
	C212.528687,189.110809 213.604111,187.222046 214.926956,185.806335 
	C213.564835,184.572327 212.378128,182.942810 210.782578,182.235153 
	C209.603699,181.712296 207.696823,181.992645 206.451294,182.602905 
	C200.968140,185.289520 195.607300,188.225800 189.906754,190.885345 
	C188.721680,189.726578 187.656815,188.863800 186.968781,187.765045 
	C177.619888,172.835327 168.010895,158.055374 159.127182,142.852173 
	C153.522079,133.259842 149.020554,123.022636 144.159286,112.763245 
	C148.166031,105.675232 152.037506,98.898682 156.104050,91.780685 
	C153.200836,91.780685 150.354584,91.780685 146.244598,91.780685 
	C155.895966,85.094330 165.186340,79.890312 170.804504,70.580818 
z"/>
<path fill="#514EB3" opacity="1.000000" stroke="none" 
	d="
M150.531342,1.000000 
	C153.942093,13.733153 156.884186,26.466307 159.580872,39.753429 
	C154.069992,42.196472 148.784698,44.032280 143.543030,45.985199 
	C130.804688,50.731201 120.368652,58.030941 115.539894,71.485588 
	C115.360779,71.984657 114.932152,72.394188 114.463219,73.071663 
	C113.117188,70.776741 111.986412,68.848824 110.359375,66.074799 
	C107.006706,69.758553 104.126869,72.922783 101.247040,76.087006 
	C98.985718,69.687683 96.086678,63.434048 94.585045,56.861160 
	C90.413681,38.602379 86.823418,20.210838 83.001785,1.435873 
	C105.354225,1.000000 127.708458,1.000000 150.531342,1.000000 
z"/>
<path fill="#5654B5" opacity="1.000000" stroke="none" 
	d="
M253.000000,116.531342 
	C251.142487,114.938843 248.817719,113.136375 247.508514,110.771660 
	C241.897369,100.636711 236.202209,90.516464 231.274353,80.044205 
	C226.554428,70.013794 222.533844,59.635155 218.594208,49.262085 
	C214.680145,38.956303 210.948364,28.558691 207.735703,18.018753 
	C206.154556,12.831403 205.926559,7.231600 205.043121,1.409219 
	C220.957199,1.000000 236.914413,1.000000 253.000000,1.000000 
	C253.000000,39.354137 253.000000,77.708412 253.000000,116.531342 
z"/>
<path fill="#4845AF" opacity="1.000000" stroke="none" 
	d="
M1.000000,139.468658 
	C2.358976,140.591995 4.203762,141.974533 4.995531,143.811066 
	C9.131223,153.403900 12.682713,163.257950 17.049393,172.739273 
	C21.465300,182.327438 26.418037,191.683090 31.458242,200.965393 
	C38.085011,213.169601 45.027142,225.202576 51.916832,237.654587 
	C35.049728,238.000000 18.099457,238.000000 1.000000,238.000000 
	C1.000000,205.312576 1.000000,172.624954 1.000000,139.468658 
z"/>
<path fill="#4D4AB1" opacity="1.000000" stroke="none" 
	d="
M103.468658,238.000000 
	C99.044952,231.763229 95.089905,225.526474 91.147629,218.788589 
	C106.872757,213.744934 122.527855,208.986053 138.335022,204.801605 
	C142.655212,203.657959 147.432037,204.239258 152.039001,204.384674 
	C154.736725,208.679688 157.358337,212.644135 160.060654,216.552780 
	C165.015305,223.719223 170.017593,230.852753 175.000000,238.000000 
	C151.312439,238.000000 127.624878,238.000000 103.468658,238.000000 
z"/>
<path fill="#504DB3" opacity="1.000000" stroke="none" 
	d="
M175.468658,238.000000 
	C170.017593,230.852753 165.015305,223.719223 160.060654,216.552780 
	C157.358337,212.644135 154.736725,208.679688 152.417938,204.358826 
	C154.159302,204.464142 155.566803,204.936172 156.962738,205.440262 
	C169.323685,209.903992 180.948654,209.380234 191.485596,200.594833 
	C193.758316,198.699905 196.373062,197.215164 198.830261,195.541473 
	C209.490280,207.797699 220.158188,220.047119 230.800827,232.318420 
	C232.203873,233.936172 233.477966,235.665787 234.905884,237.671814 
	C215.312439,238.000000 195.624878,238.000000 175.468658,238.000000 
z"/>
<path fill="#FCFCFE" opacity="1.000000" stroke="none" 
	d="
M101.117851,76.412712 
	C104.126869,72.922783 107.006706,69.758553 110.359375,66.074799 
	C111.986412,68.848824 113.117188,70.776741 114.463219,73.071663 
	C114.932152,72.394188 115.360779,71.984657 115.539894,71.485588 
	C120.368652,58.030941 130.804688,50.731201 143.543030,45.985199 
	C148.784698,44.032280 154.069992,42.196472 159.666779,40.122772 
	C165.853027,37.695591 171.707962,35.453033 178.718246,32.767963 
	C175.484589,45.239830 176.169662,58.083164 170.877609,70.237228 
	C165.186340,79.890312 155.895966,85.094330 146.244598,91.780685 
	C150.354584,91.780685 153.200836,91.780685 156.104050,91.780685 
	C152.037506,98.898682 148.166031,105.675232 143.848953,112.894928 
	C139.677872,115.647209 135.952408,117.956337 132.696426,119.974472 
	C136.502747,121.452156 140.323624,122.935493 143.586685,124.202278 
	C139.312225,130.260605 135.090012,135.224289 132.024612,140.821503 
	C127.045128,149.913727 120.489082,157.133652 110.838333,161.005127 
	C98.236008,166.060669 90.792023,175.678009 85.912079,187.796448 
	C82.704750,192.980545 79.497414,198.164642 76.290085,203.348740 
	C75.855698,203.118851 75.421310,202.888947 74.986916,202.659058 
	C76.061417,199.730087 77.135910,196.801102 78.309265,193.502014 
	C84.985466,175.619843 90.947273,157.842606 98.340569,140.682114 
	C103.961143,127.636276 111.401474,115.374451 118.390091,102.232162 
	C126.425804,91.367683 134.103561,81.034821 141.621567,70.916954 
	C129.351639,76.190811 121.156128,86.602943 113.767403,97.892662 
	C101.698181,115.230461 92.834496,134.215179 85.054817,153.758118 
	C82.921600,159.116867 80.758743,164.463806 78.537247,169.996048 
	C70.944527,162.378204 73.432289,119.998459 81.561455,111.257721 
	C82.762886,114.448990 83.976242,117.671967 85.189598,120.894936 
	C85.604149,120.941231 86.018700,120.987526 86.433250,121.033813 
	C89.958466,105.804504 91.188591,89.772133 101.117851,76.412712 
z"/>
<path fill="#5451B4" opacity="1.000000" stroke="none" 
	d="
M114.046783,98.088760 
	C121.156128,86.602943 129.351639,76.190811 141.621567,70.916954 
	C134.103561,81.034821 126.425804,91.367683 118.472427,101.884232 
	C116.906593,100.806900 115.616379,99.545876 114.046783,98.088760 
z"/>
<path fill="#4F4CB2" opacity="1.000000" stroke="none" 
	d="
M86.093369,188.100052 
	C90.792023,175.678009 98.236008,166.060669 110.838333,161.005127 
	C120.489082,157.133652 127.045128,149.913727 132.024612,140.821503 
	C135.090012,135.224289 139.312225,130.260605 143.586685,124.202278 
	C140.323624,122.935493 136.502747,121.452156 132.696426,119.974472 
	C135.952408,117.956337 139.677872,115.647209 143.713669,113.206390 
	C149.020554,123.022636 153.522079,133.259842 159.127182,142.852173 
	C168.010895,158.055374 177.619888,172.835327 186.968781,187.765045 
	C187.656815,188.863800 188.721680,189.726578 189.717194,191.170486 
	C181.868195,199.219620 172.563889,202.836746 162.067352,198.477127 
	C152.370407,194.449615 142.907593,195.039749 133.314758,197.548523 
	C121.147560,200.730576 109.094818,204.350250 96.992722,207.781204 
	C93.420036,201.322021 89.847351,194.862839 86.093369,188.100052 
z"/>
<path fill="#F9F9FC" opacity="1.000000" stroke="none" 
	d="
M96.633270,207.919022 
	C109.094818,204.350250 121.147560,200.730576 133.314758,197.548523 
	C142.907593,195.039749 152.370407,194.449615 162.067352,198.477127 
	C172.563889,202.836746 181.868195,199.219620 190.012589,191.356750 
	C195.607300,188.225800 200.968140,185.289520 206.451294,182.602905 
	C207.696823,181.992645 209.603699,181.712296 210.782578,182.235153 
	C212.378128,182.942810 213.564835,184.572327 214.926956,185.806335 
	C213.604111,187.222046 212.528687,189.110809 210.908585,189.958221 
	C207.164017,191.916794 203.155502,193.370743 199.042145,195.285431 
	C196.373062,197.215164 193.758316,198.699905 191.485596,200.594833 
	C180.948654,209.380234 169.323685,209.903992 156.962738,205.440262 
	C155.566803,204.936172 154.159302,204.464142 152.378235,204.003098 
	C147.432037,204.239258 142.655212,203.657959 138.335022,204.801605 
	C122.527855,208.986053 106.872757,213.744934 90.879997,218.545593 
	C87.323441,219.241486 83.934944,220.405701 80.801407,219.921143 
	C77.386627,219.393082 74.004181,217.672638 70.988228,215.844223 
	C68.335266,214.235855 67.881889,211.042084 70.162430,209.055618 
	C71.202499,208.149673 74.133667,209.318085 76.181328,209.688171 
	C79.269104,210.246216 82.410484,211.674515 85.389740,211.369949 
	C89.091972,210.991440 92.652229,209.224258 96.633270,207.919022 
z"/>
</svg>